<?xml version="1.0" encoding="utf-8"?>
<!-- Generator: Adobe Illustrator 24.0.2, SVG Export Plug-In . SVG Version: 6.00 Build 0)  -->
<svg version="1.0" id="Layer_1" xmlns="http://www.w3.org/2000/svg" xmlns:xlink="http://www.w3.org/1999/xlink" x="0px" y="0px"
	 viewBox="0 0 158 122" style="enable-background:new 0 0 158 122;" xml:space="preserve">
<style type="text/css">
	.st0{fill:#BAB3D2;}
	.st1{fill:#A09DB0;}
	.st2{fill:#606060;}
	.st3{fill:#868589;}
</style>
<circle class="st0" cx="29.99" cy="29.99" r="28.99"/>
<g>
	<path class="st1" d="M17.25,41.97V13.14h14.63c3.04,0,5.26,0.77,6.65,2.3s2.09,3.29,2.09,5.26c0,1.44-0.41,2.73-1.21,3.9
		c-0.81,1.16-2.02,1.96-3.62,2.4c3.73,0.9,5.6,3.14,5.6,6.71c0,2.14-0.66,4.05-1.97,5.73c-1.32,1.68-4.13,2.52-8.44,2.52H17.25
		V41.97z M25.4,24.19h4.1c1.03,0,1.75-0.26,2.17-0.78s0.63-1.08,0.63-1.67c0-1.6-0.99-2.41-2.96-2.41H25.4V24.19z M25.4,35.55h4.31
		c1.07,0,1.85-0.26,2.35-0.79c0.5-0.53,0.75-1.12,0.75-1.78s-0.24-1.27-0.73-1.83c-0.49-0.56-1.38-0.83-2.67-0.83H25.4V35.55z"/>
</g>
<circle class="st0" cx="91.95" cy="29.97" r="28.99"/>
<g>
	<path class="st1" d="M97.42,44.17l-1.63-5.68h-7.72l-1.73,5.68h-7.18l8.9-28.82h9.35l9.04,28.82H97.42z M89.57,32.2h4.66
		l-2.33-8.36L89.57,32.2z"/>
</g>
<circle class="st2" cx="29.98" cy="89.96" r="28.99"/>
<g>
	<path class="st3" d="M18.25,101.97V73.14h14.63c3.04,0,5.26,0.77,6.65,2.3s2.09,3.29,2.09,5.26c0,1.44-0.41,2.73-1.21,3.9
		c-0.81,1.16-2.02,1.96-3.62,2.4c3.73,0.9,5.6,3.14,5.6,6.71c0,2.14-0.66,4.05-1.97,5.73c-1.32,1.68-4.13,2.52-8.44,2.52
		L18.25,101.97L18.25,101.97z M26.4,84.19h4.1c1.03,0,1.75-0.26,2.17-0.78s0.63-1.08,0.63-1.67c0-1.6-0.99-2.41-2.96-2.41H26.4
		V84.19z M26.4,95.55h4.31c1.07,0,1.85-0.26,2.35-0.79s0.75-1.12,0.75-1.78s-0.24-1.27-0.73-1.83c-0.49-0.56-1.38-0.83-2.67-0.83
		H26.4V95.55z"/>
</g>
<circle class="st2" cx="91.95" cy="89.97" r="28.99"/>
<g>
	<path class="st3" d="M97.42,104.17l-1.63-5.68h-7.72l-1.73,5.68h-7.18l8.9-28.82h9.35l9.04,28.82H97.42z M89.57,92.2h4.66
		l-2.33-8.36L89.57,92.2z"/>
</g>
<ellipse transform="matrix(0.2588 -0.9659 0.9659 0.2588 75.1616 157.7954)" class="st0" cx="140.4" cy="29.92" rx="13.19" ry="13.85"/>
<ellipse transform="matrix(0.2588 -0.9659 0.9659 0.2588 15.274 203.7469)" class="st2" cx="140.4" cy="91.92" rx="13.19" ry="13.85"/>
</svg>
