<?xml version="1.0" encoding="utf-8"?>
<!-- Generator: Adobe Illustrator 24.0.2, SVG Export Plug-In . SVG Version: 6.00 Build 0)  -->
<svg version="1.0" id="Layer_1" xmlns="http://www.w3.org/2000/svg" xmlns:xlink="http://www.w3.org/1999/xlink" x="0px" y="0px"
	 viewBox="0 0 1024 768" style="enable-background:new 0 0 1024 768;" xml:space="preserve">
<style type="text/css">
	.st0{fill:#625291;}
	.st1{fill:#544388;}
	.st2{fill:#353A35;}
	.st3{fill:#1D1D1E;}
	.st4{fill-rule:evenodd;clip-rule:evenodd;fill:#1D1D1E;}
	.st5{fill:#D6CFE5;}
	.st6{fill:#ADADAD;}
	.st7{fill:#5D527B;}
	.st8{fill:#0B9344;}
	.st9{fill:#836EA7;}
	.st10{fill:#343237;}
	.st11{fill:#BAB3D2;}
	.st12{fill:#A09DB0;}
	.st13{fill:#1E1D1F;}
	.st14{fill:#23212A;}
	.st15{fill:#030303;}
	.st16{fill:#A6A3B8;}
</style>
<g>
	<g>
		<g>
			<path class="st0" d="M951.64,189.77c1.38,6.66,2.76,13.32,4.15,19.98c3.31,7.65,3.21,15.93,4.27,23.97
				c4.25,32.18,8.07,64.41,11.72,96.66c4.18,36.88,8.59,73.73,12.48,110.64c1.85,17.53,4.27,34.98,4.03,52.72
				c-0.47,34.85-22.07,66.58-54.52,79.06c-2.66,1.02-5.45,1.28-8.2,1.79c-12.87,2.5-25.28,6.69-37.78,10.49
				c-43.28,13.15-86.27,27.09-127.97,44.8c-14.07,5.98-29.39,7.9-44.35,10.72c-23.47,4.43-47.11,7.87-70.8,10.85
				c-20.1,2.52-40.24,4.68-60.43,6.45c-27.87,2.45-55.76,3.96-83.72,3.45c-23.77-0.44-47.47-2.12-71.15-4.38
				c-26.13-2.49-52.18-5.52-78.12-9.37c-27.68-4.1-55.56-7.66-82.34-16.06c-16.08-5.05-31.43-12.38-47.28-18.2
				c-39.34-14.43-79.36-26.78-119.71-38.07c-1.27-0.35-2.6-0.47-3.9-0.69c-18.04-3.41-32.11-13.48-43.39-27.32
				c-13.08-16.04-18.87-34.88-19.28-55.56c-0.43-21.92,3.41-43.44,5.61-65.12c3.15-31.13,6.94-62.2,10.53-93.28
				c2.71-23.48,5.5-46.95,8.33-70.42c1.77-14.71,3.62-29.41,5.65-44.08c0.43-3.1,0.41-6.35,2.33-9.09
				c1.39-6.65,2.79-13.31,4.18-19.96c0.49-9.98,11.31-21.59,22.63-23.57c20.32-3.56,40.5-7.64,60.46-12.86
				c23.38-6.12,46.24-13.6,67.68-24.98c6.17-3.27,12.72-5.74,19.04-8.7c2.33-1.09,4.81-1.07,7.16-1.79
				c13.3-4,26.28-9.15,40.06-11.51c4.58-0.78,9.12-1.6,13.82-1.6c134.48,0.05,268.96,0.24,403.44-0.17
				c20.83-0.06,40.5,3.71,59.87,10.57c2.8,0.99,5.66,1.82,8.5,2.72c7.81,0.77,14.58,4.63,21.2,8.15
				c40.55,21.56,84.57,31.62,129.26,39.26c12.3,2.1,20.04,8.79,25.46,19.25C951.39,186.16,952.14,187.84,951.64,189.77z"/>
			<path class="st1" d="M508.94,646.7c-9.66,0-19.36,0.48-28.98-0.11c-16.51-1.02-33.05-1.71-49.5-3.7
				c-11.33-1.37-22.74-2.01-34.09-3.23c-11.18-1.2-22.35-2.53-33.47-4.17c-16.35-2.41-32.63-5.25-48.96-7.71
				c-22.37-3.37-43.95-9.16-64.99-17.78c-28.28-11.59-57.62-20.33-86.78-29.5c-21.84-6.87-44.46-11.28-65.7-19.9
				c-27.35-11.1-43.26-31.76-48.76-60.86c-2.87-15.16-1.09-29.95,0.92-44.89c1.34-10,2.13-20.06,3.27-30.09
				c1.15-10.18,2.46-20.34,3.65-30.52c1.14-9.69,2.18-19.39,3.34-29.07c1.57-13.13,3.24-26.24,4.79-39.36
				c1.45-12.32,2.51-24.69,4.29-36.95c1.73-11.94,2.46-23.99,4.56-35.9c2.29-13.01,3.54-26.2,5.38-39.3
				c1.21-8.6,3.43-16.8,8.58-24.12c5.09-7.24,12.19-10.48,20.5-11.71c28.42-4.18,56.22-10.99,83.64-19.47
				c16.1-4.98,31.07-12.63,46.33-19.61c21.07-9.64,42.89-16.82,65.94-19.9c1.64-0.22,3.33-0.06,4.99-0.06
				c131.79,0,263.59,0.07,395.38-0.1c15.49-0.02,30.3,2.88,44.94,7.38c18.16,5.58,35.37,13.44,52.51,21.58
				c20.63,9.8,42.62,15.73,64.74,21.08c17.05,4.13,34.32,7.17,51.58,10.28c9.07,1.63,14.63,8.67,18.64,16.65
				c3.63,7.21,4.81,15.13,6.02,22.98c1.78,11.59,3.34,23.22,4.78,34.86c1.56,12.63,2.82,25.3,4.3,37.95
				c1,8.54,2.17,17.06,3.21,25.59c1.28,10.5,2.5,21,3.77,31.5c1.57,12.96,3.2,25.91,4.72,38.88c1.17,10.02,2.16,20.06,3.29,30.08
				c1.15,10.18,2.47,20.34,3.58,30.53c2.05,18.87,5.33,37.63,0.52,56.68c-7.37,29.19-25.17,48.68-53.47,58.1
				c-24.08,8.01-48.8,13.96-72.97,21.76c-21.98,7.09-44.24,13.47-65.57,22.3c-25.59,10.59-51.83,17.97-79.22,22.08
				c-19.44,2.92-38.86,6.11-58.36,8.54c-13.45,1.67-26.96,3-40.44,4.42c-19.1,2-38.25,3.21-57.39,4.63
				c-11.1,0.82-22.32,0.15-33.48,0.15C508.94,646.68,508.94,646.69,508.94,646.7z"/>
			<path d="M512.12,599.86c-45.75,0.28-90.88-5.56-135.79-13.7c-26.17-4.74-52.05-10.85-78.05-16.41
				c-23.87-5.11-36.34-20.37-41.44-43.18c-3.37-15.05-1.67-30.15-0.8-45.24c0.72-12.45,1.84-24.87,2.64-37.32
				c2.33-35.84,4.61-71.69,6.86-107.54c1.16-18.43,1.94-36.88,3.36-55.29c1.74-22.54,1.9-45.21,4.96-67.64
				c2.63-19.33,15.93-34.01,33.23-36.57c11.17-1.65,22.49-2.33,33.76-3.19c29.2-2.23,58.44-3.59,87.72-4.47
				c11.98-0.36,23.96-0.35,35.93-0.81c25.46-0.98,50.94-0.98,76.41-0.57c26.12,0.41,52.25,0.96,78.36,2.04
				c25.91,1.07,51.84,2.36,77.65,4.98c8.72,0.89,17.71,0.47,26.1,3.58c17.69,6.55,25.51,20.64,27.63,38.25
				c1.61,13.36,2.13,26.85,3.02,40.28c2.01,30.53,3.96,61.07,5.92,91.6c1.01,15.77,2.02,31.53,3,47.3
				c2.11,33.86,4.29,67.72,6.25,101.59c0.72,12.5,0.11,24.92-3.84,37.02c-6.16,18.86-18.59,30.45-38.1,34.9
				c-36.46,8.31-72.98,16.33-109.98,21.89c-23.34,3.51-46.79,6.23-70.39,7.57C535.07,599.6,523.61,599.73,512.12,599.86z"/>
			<path class="st2" d="M512.23,493.88c-66.48,0-132.95-0.04-199.43,0.08c-4.32,0.01-5.96-0.75-5.9-5.63
				c0.34-28.65-0.2-57.32,0.47-85.96c1-42.3,0.11-84.61,1.04-126.89c0.43-19.31,0.49-38.62,0.49-57.92c0-4.63,1.5-5.4,5.69-5.4
				c115.29,0.11,230.59,0.09,345.88,0.09c16.99,0,33.99,0.08,50.98-0.07c3.4-0.03,4.7,0.82,4.59,4.43
				c-0.23,7.66-0.03,15.32,0.02,22.99c0.33,49.96,0.25,99.93,1.15,149.88c0.59,32.81,0.29,65.61,0.86,98.4
				c0.08,4.72-0.99,6.12-5.91,6.11C645.52,493.83,578.88,493.88,512.23,493.88z"/>
			<g>
				<path class="st3" d="M787.49,486.07c-2.37,0.13-4.19-0.14-4.53-2.53c-0.43-2.99,1.88-3.58,4-4.09
					c15.64-3.77,31.28-7.53,46.94-11.22c16.63-3.92,33.27-7.76,49.91-11.65c2.46-0.58,5.25-1.61,6.1,1.94
					c0.81,3.4-1.82,3.99-4.44,4.61c-31.81,7.5-63.6,15.08-95.41,22.61C789.1,485.96,788.09,485.99,787.49,486.07z"/>
				<path class="st3" d="M787.58,526.06c-2.34,0.12-4.2-0.04-4.6-2.44c-0.5-2.98,1.73-3.64,3.89-4.16
					c13.23-3.17,26.46-6.32,39.69-9.44c19.05-4.49,38.1-8.95,57.15-13.44c2.44-0.58,5.23-1.69,6.16,1.82
					c0.9,3.37-1.66,4.06-4.32,4.68c-31.81,7.5-63.61,15.07-95.41,22.6C789.19,525.92,788.18,525.98,787.58,526.06z"/>
				<path class="st3" d="M787.7,546.05c-2.35,0.12-4.26,0.05-4.7-2.34c-0.61-3.34,2.04-3.83,4.26-4.36
					c17.42-4.16,34.86-8.24,52.3-12.34c14.69-3.46,29.38-6.91,44.07-10.39c2.43-0.58,5.26-1.77,6.21,1.71
					c1.03,3.73-1.96,4.2-4.69,4.84c-31.65,7.47-63.28,15-94.92,22.49C789.27,545.89,788.27,545.96,787.7,546.05z"/>
				<path class="st3" d="M787.7,466.06c-2.35,0.12-4.26,0.05-4.7-2.34c-0.61-3.34,2.04-3.83,4.26-4.36
					c17.42-4.16,34.86-8.24,52.3-12.34c14.69-3.46,29.39-6.91,44.07-10.39c2.43-0.58,5.26-1.77,6.22,1.71
					c1.03,3.73-1.95,4.2-4.69,4.85c-31.65,7.47-63.28,15-94.92,22.49C789.27,465.9,788.27,465.98,787.7,466.06z"/>
				<path class="st3" d="M787.82,506.05c-2.8,0.14-4.58-0.22-4.87-2.6c-0.36-3,2-3.53,4.09-4.04c15.48-3.73,30.97-7.42,46.47-11.08
					c16.79-3.96,33.59-7.85,50.38-11.81c1.98-0.47,3.98-1.18,5.54,0.69c1.86,2.22,0.26,4.89-3.56,5.8
					c-18.24,4.35-36.48,8.64-54.73,12.95c-13.4,3.17-26.8,6.33-40.21,9.49C789.64,505.75,788.33,505.95,787.82,506.05z"/>
			</g>
			<g>
				<path class="st3" d="M556.35,126.13h-90.16c-9.54-0.02-15.95,6.84-15.95,15.06s6.39,15,15.96,15.01h90.13
					c9.57,0,15.97-6.78,15.97-15.01C572.3,132.96,565.89,126.11,556.35,126.13z M556.3,152.51h-90.07
					c-7.61,0.03-12.23-5.08-12.23-11.34s4.65-11.33,12.23-11.34h90.07c7.58,0.01,12.23,5.08,12.23,11.34
					C568.53,147.43,563.91,152.54,556.3,152.51z"/>
				<polygon class="st4" points="462.35,134.06 466.76,134.06 472.86,143.93 472.86,134.06 477.23,134.06 477.23,148.21 
					472.86,148.21 466.73,138.34 466.73,148.21 462.35,148.21 				"/>
				<polygon class="st4" points="501.02,135.52 505.28,135.52 505.28,137.42 507.59,137.42 507.59,138.82 505.28,138.82 
					505.29,148.21 501.02,148.21 501.03,138.82 498.71,138.82 498.71,137.42 501.03,137.42 				"/>
				<polygon class="st4" points="479.67,138.8 483.93,138.8 483.93,148.21 479.67,148.21 				"/>
				<polygon class="st4" points="479.66,134.05 483.93,134.05 483.93,136.95 479.66,136.95 				"/>
				<path class="st4" d="M555.97,143.43c0,0,0,1.42,0,1.99c0,1.5-0.89,2.12-1.74,2.12s-1.74-0.62-1.74-2.12c0-0.57,0-2.03,0-2.03
					s0-1.39,0-1.96c0-1.49,0.89-2.11,1.74-2.11s1.74,0.61,1.74,2.11C555.97,142.01,555.97,143.06,555.97,143.43L555.97,143.43
					L555.97,143.43L555.97,143.43z M554.26,138.16c-3.44,0-6.22,2.37-6.22,5.29s2.78,5.28,6.22,5.28c3.44,0,6.22-2.37,6.22-5.28
					C560.48,140.52,557.7,138.16,554.26,138.16L554.26,138.16z"/>
				<path class="st4" d="M542.46,134.06h4.2v14.15h-4.21c0,0,0-0.46,0-0.54c-1.63,1.02-3.47,1.02-4.9,0.35
					c-0.38-0.18-2.91-1.39-2.91-4.67c0-2.49,2.35-5.2,5.41-4.93c1.01,0.09,1.73,0.46,2.41,0.84
					C542.46,137.09,542.46,134.06,542.46,134.06L542.46,134.06L542.46,134.06z M542.49,143.46c0,0,0-1.18,0-1.68
					c0-1.45-1-1.83-1.67-1.83c-0.68,0-1.67,0.37-1.67,1.83c0,0.48,0,1.68,0,1.68s0,1.17,0,1.67c0,1.46,0.99,1.83,1.67,1.83
					c0.66,0,1.67-0.38,1.67-1.83C542.49,144.52,542.49,143.46,542.49,143.46L542.49,143.46z"/>
				<path class="st4" d="M493.89,138.37c1.59-0.04,4.82,1,4.8,4.73c0,0.66,0,5.12,0,5.12h-4.23c0,0,0-5.59,0-6.18
					c0-0.82-0.78-1.73-1.94-1.73s-2.02,0.91-2.02,1.73c0,0.4,0,6.18,0,6.18h-4.23v-9.41h4.23c0,0,0,0.76,0,0.99
					C491.31,139.01,492.48,138.41,493.89,138.37L493.89,138.37z"/>
				<path class="st4" d="M528.48,138.37c1.59-0.04,4.82,1,4.8,4.73c-0.01,0.66,0,5.12,0,5.12h-4.23c0,0,0-5.59,0-6.18
					c0-0.82-0.78-1.73-1.94-1.73s-2.02,0.91-2.02,1.73c0,0.4,0.01,6.18,0.01,6.18h-4.23v-9.41h4.22c0,0-0.01,0.76,0,0.99
					C525.91,139.01,527.08,138.41,528.48,138.37L528.48,138.37z"/>
				<path class="st4" d="M511.55,142.08c-0.01-0.82,0.01-1.37,0.28-1.85c0.33-0.58,0.95-0.85,1.5-0.86l0,0
					c0.56,0,1.17,0.28,1.5,0.86c0.27,0.47,0.29,1.02,0.28,1.85H511.55L511.55,142.08L511.55,142.08z M515.09,144.92
					c0,0,0,0.04,0,0.57c0,1.72-1.13,2.11-1.76,2.11s-1.78-0.38-1.78-2.11c0-0.52,0.01-1.94,0.01-1.94h8.02
					c0-2.92-2.82-5.34-6.28-5.34c-3.46,0-6.27,2.37-6.27,5.28c0,2.92,2.81,5.29,6.27,5.29c2.87,0,5.3-1.64,6.04-3.86H515.09
					L515.09,144.92z"/>
				<path class="st4" d="M560.78,137.43h-0.49v-3.22h1.23c0.76,0,1.14,0.28,1.14,0.92c0,0.58-0.36,0.83-0.84,0.89l0.92,1.42h-0.54
					l-0.85-1.4h-0.56v1.39H560.78L560.78,137.43z M561.36,135.61c0.41,0,0.78-0.03,0.78-0.52c0-0.4-0.36-0.47-0.7-0.47h-0.67v1
					L561.36,135.61L561.36,135.61z"/>
				<path class="st4" d="M558.53,135.81c0-1.6,1.3-2.79,2.84-2.79c1.52,0,2.82,1.18,2.82,2.79c0,1.62-1.3,2.8-2.82,2.8
					C559.83,138.61,558.53,137.43,558.53,135.81L558.53,135.81L558.53,135.81z M561.37,138.14c1.27,0,2.26-0.99,2.26-2.34
					c0-1.32-0.99-2.32-2.26-2.32c-1.28,0-2.28,1-2.28,2.32C559.09,137.15,560.09,138.14,561.37,138.14L561.37,138.14z"/>
			</g>
		</g>
		<g>
			<path class="st5" d="M67.78,209.73c-1.78,14.5-3.58,29.01-5.33,43.51c-2.55,21.11-5.11,42.22-7.59,63.34
				c-2.93,24.92-5.83,49.84-8.66,74.77c-2.51,22.12-4.88,44.27-7.37,66.39c-1.36,12.06-2.81,24.1-2.17,36.3
				c1.98,38.36,22.56,66.27,58.67,79.34c0.92,0.33,1.79,0.8,2.68,1.21c-15.89,0.56-29.9-3.15-40.49-16.26
				c-6.81-8.43-12.63-17.46-18.08-26.74c-4.6-7.83-6.08-16.73-7.61-25.57c-1.51-8.7-1.72-17.62-1.52-26.22
				c0.32-13.34,0.28-26.8,2.27-40.12c1.29-8.65,1.44-17.47,2.31-26.2c1.14-11.5,2.49-22.99,3.72-34.48
				c1.1-10.19,2.11-20.39,3.26-30.57c1.13-10.01,2.39-20.01,3.59-30.01c1.13-9.35,2.23-18.7,3.39-28.04
				c1.56-12.45,3.25-24.89,4.72-37.35c1.26-10.67,2-21.42,4.43-31.9C59.23,215.86,61.71,211.12,67.78,209.73z"/>
			<path class="st5" d="M925.58,574.59c12.13-4.7,23.91-10.05,33.64-18.98c19.19-17.63,27.21-40.04,27.81-65.57
				c0.43-18.21-2.94-36.09-4.76-54.1c-2.24-22.15-4.95-44.25-7.5-66.37c-2.53-21.95-5.07-43.9-7.67-65.84
				c-2.74-23.1-5.55-46.19-8.33-69.28c-0.99-8.24-1.99-16.48-2.98-24.71c6.43,2.72,8.96,8.27,9.82,14.56
				c2.22,16.36,4.09,32.77,6.18,49.14c2.23,17.52,4.67,35.01,6.78,52.54c1.58,13.12,2.74,26.29,4.2,39.42
				c1.53,13.78,3.25,27.54,4.78,41.32c0.82,7.39,1.64,14.79,2.11,22.21c1.19,18.51,3.79,37,2.89,55.54
				c-0.8,16.44-0.93,33.32-9.82,48.15c-7.65,12.77-14.69,26.32-27.46,34.81C946.52,573.27,936.38,575.99,925.58,574.59z"/>
		</g>
		<g>
			<path d="M406.8,554.57c-0.6,1.32-1.28,2.6-1.77,3.96c-0.42,1.17-1.15,1.42-2.3,1.42c-3.42-0.01-6.85,0.11-10.27,0.18
				c-6.07,0.13-11.05-2.08-13.71-7.66c-2.71-5.68-1.59-11.26,2.28-16.1c4.83-6.04,13.36-8.29,21.1-5.87
				c0.88,0.27,1.77,0.85,2.55-0.26c0.13-0.19,0.63-0.16,0.96-0.17c3.04-0.01,6.07-0.05,9.1,0.06c0.48,0.02,1.18,0.7,1.36,1.22
				c0.35,1.02,0.4,2.14,0.57,3.22c0.17,0.03,0.34,0.06,0.51,0.09c0.39-1.1,0.83-2.19,1.15-3.31c0.27-0.94,0.74-1.32,1.78-1.32
				c17.26,0.04,34.52,0.04,51.77,0.03c2.62,0,4.83,0.88,6.61,2.82c0.3,0.33,0.65,0.6,0.94,0.86c0.15-0.03,0.22-0.03,0.25-0.06
				c4.04-3.56,8.89-3.76,13.94-3.66c7.92,0.16,15.85,0.03,23.78,0.03c0.67,0,1.34,0,2.26,0c-0.56,1.1-1.03,2-1.67,3.24
				c0.86,0,1.49,0,2.13,0c11.92,0,23.84,0.02,35.75-0.03c1.32-0.01,2.05,0.4,2.63,1.54c0.78,1.54,1.72,2.99,2.82,4.86
				c1.03-1.92,1.94-3.49,2.73-5.13c0.43-0.88,0.97-1.2,1.95-1.19c7.87,0.04,15.74,0,23.61,0.06c0.76,0.01,1.62,0.4,2.26,0.85
				c1.82,1.28,3.55,2.69,5.66,4.32c0-1.94,0-3.46,0-5.1c16.51,0,32.78,0,49.19,0c0,7.63,0,15.24,0,23.02
				c-0.6,0.03-1.19,0.08-1.79,0.08c-13.94,0-27.88,0.03-41.82-0.05c-1.12-0.01-2.36-0.56-3.33-1.18c-1.73-1.12-3.29-2.5-5.27-4.03
				c0,1.94,0,3.5,0,5.26c-0.85,0-1.45,0-2.04,0c-10.85,0-21.7-0.05-32.55,0.05c-1.71,0.01-2.76-0.46-3.46-1.96
				c-0.33-0.7-0.83-1.31-1.38-2.16c-4.27,4.35-9.66,4.1-15.02,4.09c-9.84-0.03-19.68-0.01-29.51-0.02c-2.52,0-3.56,0.8-4.15,3.24
				c-3.94,0-7.92,0-12.03,0c-0.07-0.45-0.14-0.95-0.24-1.62c-5.71,3.31-10.99,2.79-15.89-1.7c-0.37,0.26-0.75,0.48-1.08,0.75
				c-2.21,1.84-4.75,2.65-7.63,2.63c-8.6-0.06-17.2-0.1-25.8-0.09c-11.24,0.01-22.48,0.04-33.72,0.15
				c-1.51,0.01-2.13-0.39-2.18-1.93c-0.04-1.15-0.41-2.29-0.63-3.43C407.08,554.59,406.94,554.58,406.8,554.57z M415.92,550
				c-0.11,0.02-0.22,0.04-0.33,0.05c-0.1-0.43-0.21-0.85-0.28-1.28c-0.63-3.65-1.22-7.31-1.89-10.95c-0.25-1.4-0.24-3.33-1.12-3.99
				c-0.95-0.71-2.82-0.32-4.26-0.17c-0.62,0.06-1.45,0.58-1.71,1.12c-1.36,2.77-2.57,5.61-3.83,8.43c-1.06,2.37-2.12,4.74-3.19,7.11
				c-0.1-0.03-0.2-0.07-0.3-0.1c0.23-1.69,0.46-3.38,0.71-5.26c-0.73,0-1.28,0-1.83,0c-2.3,0-4.59,0-7.01,0
				c-0.23,1.49-0.44,2.86-0.66,4.36c1.23,0.06,2.28,0.11,3.72,0.17c-0.45,0.76-0.66,1.63-1.11,1.79c-3.88,1.35-7.57-2.09-6.72-6.18
				c0.7-3.37,3.74-6.16,7.81-6.71c2.27-0.31,4.62-0.05,7.08-0.05c0.14-0.87,0.29-1.97,0.5-3.07c0.18-0.96-0.17-1.55-1.14-1.64
				c-2.11-0.2-4.24-0.63-6.32-0.45c-5.1,0.44-11.58,4.14-12.75,10.51c-1.12,6.11,1.43,10.74,7.08,12.32
				c2.87,0.81,5.66,0.39,8.19-0.67c0.53,0.32,0.91,0.74,1.34,0.79c3.85,0.44,3.91,0.39,5.54-3.09c0.07-0.15,0.18-0.3,0.21-0.46
				c0.6-2.78,2.39-3.55,5.04-3.16c0.9,0.13,1.4,0.24,1.54,1.27c0.24,1.81,0.65,3.6,1.01,5.46c2.2,0,4.23-0.1,6.24,0.03
				c1.45,0.1,2.05-0.43,2.44-1.79c0.91-3.15,1.99-6.24,3.01-9.36c0.94,3.02,1.64,6,2.14,9.01c0.26,1.61,0.83,2.33,2.58,2.15
				c0.96-0.1,1.52-0.32,1.87-1.25c0.51-1.37,1.13-2.69,1.72-4.03c1.05-2.38,2.1-4.75,3.15-7.13c0.1,0.03,0.2,0.06,0.3,0.08
				c0.19,4.05,0.39,8.1,0.58,12.16c6.13,0,12.06,0,18.05,0c0.27-1.67,0.53-3.23,0.81-4.97c-2.78,0-5.29,0-7.96,0
				c0.21-1.3,0.4-2.44,0.6-3.69c2.38,0,4.61,0,6.93,0c0.26-1.7,0.5-3.27,0.77-5.03c-2.48,0-4.71,0-7.03,0
				c0.23-1.35,0.42-2.52,0.64-3.78c2.83,0,5.4,0,7.98,0c0.26-1.66,0.49-3.2,0.76-4.96c-3.98,0-7.79,0.04-11.6-0.02
				c-1.15-0.02-1.5,0.37-1.66,1.51c-0.71,4.94-1.54,9.85-2.34,14.78c-0.24,1.47-0.53,2.93-0.8,4.4c-0.11-0.02-0.22-0.04-0.33-0.06
				c-0.29-6.81-0.57-13.62-0.87-20.61c-1.63,0-3.08,0.06-4.53-0.02c-1-0.06-1.56,0.3-1.89,1.24c-0.37,1.06-0.85,2.07-1.3,3.1
				c-0.97,2.23-1.94,4.46-2.91,6.69c-0.83-2.74-1.29-5.42-1.83-8.08c-0.69-3.42,0.13-2.78-3.51-2.96c-1.55-0.08-2.12,0.52-2.55,1.9
				C419.15,540.33,417.51,545.16,415.92,550z M524.01,541.68c1.99,3.49,3.85,6.8,5.78,10.07c0.27,0.46,0.85,1.05,1.29,1.05
				c5.17,0.02,10.36,0.22,15.49-0.2c5.18-0.43,7.14-2.89,7.4-8.03c0-0.08,0.12-0.15,0.31-0.35c1.57,2.55,3.09,5.08,4.65,7.57
				c1.02,1.62,3.72,1.57,4.69-0.08c2.53-4.31,5.04-8.62,7.55-12.94c0.29-0.5,0.49-1.06,0.83-1.82c-1.24,0-2.2,0.1-3.13-0.02
				c-1.5-0.19-2.32,0.38-3,1.74c-1.34,2.68-2.89,5.26-4.49,8.12c-1.41-2.39-2.95-4.39-3.84-6.64c-1.23-3.1-3.44-3.6-6.25-3.17
				c-0.51,0.08-0.96,0.49-1.56,0.81c-5.01-1.59-10.34-0.51-15.8-0.88c0,4.15,0,8.03,0,11.92c-2.44-3.48-4.6-7.01-6.75-10.55
				c-1.16-1.91-4.7-1.96-5.84-0.07c-2.29,3.8-4.58,7.59-6.85,11.4c-0.59,0.99-1.13,2.01-1.74,3.11c3.95,0,7.67,0,11.39,0
				c0-1.26,0-2.36,0-3.61c-1.36,0-2.63,0-4.24,0C521.31,546.52,522.61,544.2,524.01,541.68z M590.79,543.92
				c0.63,0.41,1.06,0.64,1.44,0.94c2.82,2.23,5.72,4.37,8.4,6.75c1.56,1.38,3.14,1.41,4.95,1.1c0-5.29,0-10.48,0-15.66
				c-1.48,0-2.8,0-4.42,0c0,2.89,0,5.69,0,8.82c-3.51-2.7-6.75-5.03-9.77-7.61c-1.57-1.34-3.15-1.46-5.16-1.17c0,3.87,0,7.7,0,12.03
				c-0.6-0.9-0.91-1.34-1.19-1.8c-1.9-3.12-3.78-6.25-5.7-9.35c-0.96-1.55-4.68-1.52-5.61,0.03c-2.71,4.53-5.4,9.07-8.09,13.61
				c-0.19,0.32-0.3,0.68-0.48,1.1c3.86,0,7.57,0,11.28,0c0-1.26,0-2.36,0-3.64c-1.34,0-2.6,0-4.21,0c1.43-2.57,2.71-4.85,4.11-7.37
				c1.98,3.49,3.75,6.68,5.59,9.83c0.31,0.52,0.87,1.24,1.35,1.26c2.45,0.13,4.9,0.06,7.51,0.06
				C590.79,549.81,590.79,546.98,590.79,543.92z M463.44,533.83c-1.19,7.45-2.37,14.82-3.57,22.33c3.52,0,6.72,0.01,9.91,0
				c3.21-0.01,5.66-1.48,7.16-4.23c1.44-2.64,0.74-5.1-1.29-7.25c0.57-0.84,1.17-1.59,1.6-2.42c1.85-3.53-0.45-8.08-4.4-8.39
				C469.81,533.64,466.71,533.83,463.44,533.83z M497.56,544.07c0-0.34,0.03-0.68-0.01-1.01c-0.46-3.89-1.87-7.22-5.76-8.81
				c-3.66-1.49-7.39-0.44-10.37,2.72c-3.43,3.63-4.43,9.82-2.32,14.33c2.52,5.37,8.39,6.99,13.25,3.55
				C496.04,552.24,497.51,548.47,497.56,544.07z M624.87,543c0-0.95,0.04-1.73-0.01-2.5c-0.14-2.34-1.14-3.46-3.42-3.52
				c-3.76-0.09-7.53-0.09-11.29,0.01c-2.21,0.06-3.3,1.12-3.36,3.2c-0.08,3.14-0.08,6.29,0,9.43c0.05,1.93,0.97,3.06,2.86,3.12
				c4.09,0.13,8.19,0.07,12.29-0.01c1.32-0.03,2.45-0.73,2.7-2.12c0.24-1.34,0.21-2.72,0.29-4.1c-1.81,0-3.29,0-4.78,0
				c-0.09,0.76-0.16,1.41-0.24,2.07c-2.8,0-5.47,0-8.16,0c0-2.58,0-5.06,0-7.5c2.82,0,5.49,0,8.16,0c0.11,0.72,0.19,1.31,0.28,1.93
				C621.75,543,623.19,543,624.87,543z M642.98,540.75c0-1.33,0-2.47,0-3.67c-5.67,0-11.25,0-16.8,0c0,5.32,0,10.51,0,15.64
				c5.79,0,11.42,0,17.04,0c0-1.31,0-2.46,0-3.81c-4.12,0-8.13,0-12.21,0c0-0.85,0-1.5,0-2.4c2.34,0,4.6,0,6.87,0
				c0-1.39,0-2.53,0-3.84c-2.35,0-4.57,0-6.83,0c0-0.69,0-1.21,0-1.91C635.08,540.75,638.99,540.75,642.98,540.75z M503.31,556.08
				c0.14-0.87,0.29-1.69,0.41-2.51c0.57-3.69,0.87-7.39,3.41-10.54c1.96-2.43,3.43-5.25,5.11-7.91c0.25-0.39,0.42-0.84,0.76-1.52
				c-1.08,0-1.86,0.1-2.62-0.02c-2.21-0.34-3.68,0.42-4.65,2.51c-0.69,1.48-1.74,2.79-2.77,4.4c-0.85-2.12-1.54-3.94-2.3-5.74
				c-0.18-0.42-0.54-1.05-0.86-1.07c-1.64-0.11-3.29-0.05-5.17-0.05c0.29,0.77,0.44,1.24,0.64,1.68c1.34,2.9,2.76,5.76,3.99,8.71
				c0.42,1.01,0.58,2.26,0.45,3.36c-0.33,2.88-0.88,5.73-1.35,8.7C500.11,556.08,501.66,556.08,503.31,556.08z"/>
			<path class="st6" d="M415.92,550c1.59-4.84,3.23-9.67,4.74-14.54c0.43-1.38,1-1.98,2.55-1.9c3.64,0.19,2.82-0.46,3.51,2.96
				c0.54,2.67,1,5.35,1.83,8.08c0.97-2.23,1.94-4.46,2.91-6.69c0.45-1.03,0.93-2.04,1.3-3.1c0.33-0.94,0.89-1.29,1.89-1.24
				c1.44,0.08,2.89,0.02,4.53,0.02c0.29,6.99,0.58,13.8,0.87,20.61c0.11,0.02,0.22,0.04,0.33,0.06c0.27-1.47,0.56-2.93,0.8-4.4
				c0.8-4.92,1.63-9.84,2.34-14.78c0.16-1.14,0.51-1.53,1.66-1.51c3.81,0.06,7.62,0.02,11.6,0.02c-0.27,1.76-0.51,3.3-0.76,4.96
				c-2.58,0-5.15,0-7.98,0c-0.21,1.26-0.41,2.43-0.64,3.78c2.32,0,4.55,0,7.03,0c-0.27,1.76-0.51,3.33-0.77,5.03
				c-2.32,0-4.55,0-6.93,0c-0.2,1.26-0.39,2.39-0.6,3.69c2.67,0,5.18,0,7.96,0c-0.28,1.74-0.54,3.3-0.81,4.97
				c-5.99,0-11.92,0-18.05,0c-0.19-4.06-0.39-8.11-0.58-12.16c-0.1-0.03-0.2-0.06-0.3-0.08c-1.05,2.38-2.11,4.75-3.15,7.13
				c-0.59,1.34-1.21,2.66-1.72,4.03c-0.35,0.93-0.9,1.15-1.87,1.25c-1.74,0.18-2.31-0.55-2.58-2.15c-0.49-3.01-1.2-5.99-2.14-9.01
				c-1.01,3.12-2.1,6.21-3.01,9.36c-0.39,1.36-0.99,1.89-2.44,1.79c-2.01-0.14-4.04-0.03-6.24-0.03c-0.35-1.86-0.77-3.65-1.01-5.46
				c-0.14-1.04-0.63-1.14-1.54-1.27c-2.65-0.39-4.44,0.37-5.04,3.16c-0.03,0.16-0.14,0.31-0.21,0.46c-1.63,3.47-1.69,3.52-5.54,3.09
				c-0.42-0.05-0.81-0.46-1.34-0.79c-2.53,1.06-5.32,1.48-8.19,0.67c-5.65-1.59-8.2-6.21-7.08-12.32
				c1.17-6.37,7.65-10.07,12.75-10.51c2.08-0.18,4.22,0.25,6.32,0.45c0.97,0.09,1.32,0.67,1.14,1.64c-0.21,1.1-0.36,2.2-0.5,3.07
				c-2.46,0-4.8-0.25-7.08,0.05c-4.07,0.55-7.11,3.34-7.81,6.71c-0.85,4.09,2.84,7.53,6.72,6.18c0.46-0.16,0.66-1.03,1.11-1.79
				c-1.45-0.07-2.49-0.12-3.72-0.17c0.23-1.5,0.44-2.87,0.66-4.36c2.42,0,4.71,0,7.01,0c0.55,0,1.1,0,1.83,0
				c-0.25,1.87-0.48,3.56-0.71,5.26c0.1,0.03,0.2,0.07,0.3,0.1c1.06-2.37,2.12-4.74,3.19-7.11c1.26-2.82,2.47-5.66,3.83-8.43
				c0.27-0.54,1.1-1.06,1.71-1.12c1.44-0.14,3.31-0.54,4.26,0.17c0.88,0.65,0.87,2.59,1.12,3.99c0.66,3.64,1.26,7.3,1.89,10.95
				c0.07,0.43,0.19,0.86,0.28,1.28C415.7,550.03,415.81,550.02,415.92,550z M409.19,544.87c-0.18-1-0.34-1.88-0.5-2.77
				c-0.11-0.02-0.21-0.05-0.32-0.07c-0.42,0.9-0.84,1.79-1.33,2.83C407.86,544.87,408.43,544.87,409.19,544.87z"/>
			<path class="st6" d="M524.01,541.68c-1.4,2.51-2.69,4.84-4.13,7.42c1.61,0,2.88,0,4.24,0c0,1.25,0,2.35,0,3.61
				c-3.72,0-7.43,0-11.39,0c0.62-1.1,1.15-2.12,1.74-3.11c2.27-3.81,4.56-7.6,6.85-11.4c1.14-1.89,4.67-1.84,5.84,0.07
				c2.15,3.54,4.31,7.08,6.75,10.55c0-3.88,0-7.77,0-11.92c5.46,0.37,10.8-0.71,15.8,0.88c0.6-0.32,1.06-0.73,1.56-0.81
				c2.81-0.43,5.02,0.07,6.25,3.17c0.89,2.25,2.43,4.25,3.84,6.64c1.6-2.86,3.15-5.43,4.49-8.12c0.68-1.36,1.5-1.93,3-1.74
				c0.93,0.12,1.89,0.02,3.13,0.02c-0.34,0.76-0.54,1.32-0.83,1.82c-2.5,4.32-5.02,8.64-7.55,12.94c-0.97,1.65-3.67,1.7-4.69,0.08
				c-1.57-2.5-3.09-5.02-4.65-7.57c-0.18,0.2-0.3,0.27-0.31,0.35c-0.26,5.14-2.22,7.61-7.4,8.03c-5.14,0.42-10.33,0.22-15.49,0.2
				c-0.44,0-1.01-0.59-1.29-1.05C527.86,548.48,526,545.17,524.01,541.68z M538.77,549.16c2.69-0.27,5.3-0.38,7.84-0.85
				c1.81-0.34,2.29-1.94,2.3-3.64c0.02-1.71-0.68-3.16-2.34-3.43c-2.54-0.42-5.16-0.42-7.8-0.61
				C538.77,543.61,538.77,546.17,538.77,549.16z"/>
			<path class="st6" d="M590.79,543.92c0,3.06,0,5.89,0,8.95c-2.61,0-5.06,0.07-7.51-0.06c-0.48-0.03-1.05-0.74-1.35-1.26
				c-1.84-3.15-3.61-6.33-5.59-9.83c-1.41,2.52-2.68,4.8-4.11,7.37c1.61,0,2.86,0,4.21,0c0,1.27,0,2.38,0,3.64
				c-3.71,0-7.43,0-11.28,0c0.18-0.42,0.29-0.79,0.48-1.1c2.69-4.54,5.38-9.08,8.09-13.61c0.93-1.55,4.65-1.58,5.61-0.03
				c1.92,3.1,3.8,6.24,5.7,9.35c0.28,0.46,0.59,0.9,1.19,1.8c0-4.34,0-8.17,0-12.03c2.02-0.29,3.6-0.17,5.16,1.17
				c3.03,2.58,6.27,4.91,9.77,7.61c0-3.12,0-5.93,0-8.82c1.62,0,2.94,0,4.42,0c0,5.19,0,10.38,0,15.66
				c-1.81,0.31-3.39,0.28-4.95-1.1c-2.68-2.38-5.58-4.52-8.4-6.75C591.85,544.56,591.42,544.32,590.79,543.92z"/>
			<path class="st6" d="M463.44,533.83c3.27,0,6.37-0.19,9.43,0.05c3.94,0.3,6.25,4.86,4.4,8.39c-0.44,0.83-1.04,1.58-1.6,2.42
				c2.02,2.14,2.73,4.61,1.29,7.25c-1.51,2.76-3.96,4.22-7.16,4.23s-6.39,0-9.91,0C461.07,548.65,462.25,541.28,463.44,533.83z
				 M465.7,551.37c1.7,0,3.29,0.22,4.77-0.09c0.74-0.15,1.65-1.2,1.81-1.97c0.24-1.16-0.84-1.75-1.93-1.82
				c-1.32-0.09-2.65-0.02-4.01-0.02C466.13,548.77,465.94,549.92,465.7,551.37z M467.15,542.42c1.3,0,2.5,0.27,3.48-0.09
				c0.77-0.27,1.67-1.26,1.77-2.03c0.14-1.07-0.93-1.48-2.01-1.45c-0.87,0.03-1.74,0.01-2.66,0.01
				C467.52,540.17,467.34,541.24,467.15,542.42z"/>
			<path class="st6" d="M497.56,544.07c-0.06,4.4-1.52,8.17-5.21,10.77c-4.86,3.44-10.74,1.82-13.25-3.55
				c-2.11-4.5-1.11-10.69,2.32-14.33c2.99-3.17,6.71-4.22,10.37-2.72c3.9,1.59,5.31,4.92,5.76,8.81
				C497.6,543.39,497.56,543.73,497.56,544.07z M492.62,543.33c-0.24-0.78-0.45-2.01-0.99-3.09c-0.94-1.88-2.97-2.4-4.71-1.41
				c-3.27,1.87-4.88,7.54-3.09,10.88c1.13,2.11,3.05,2.68,5.06,1.42C491.58,549.44,492.33,546.74,492.62,543.33z"/>
			<path class="st6" d="M624.87,543c-1.68,0-3.12,0-4.67,0c-0.09-0.62-0.18-1.21-0.28-1.93c-2.67,0-5.33,0-8.16,0
				c0,2.44,0,4.92,0,7.5c2.69,0,5.36,0,8.16,0c0.08-0.66,0.15-1.3,0.24-2.07c1.49,0,2.98,0,4.78,0c-0.09,1.38-0.05,2.77-0.29,4.1
				c-0.25,1.39-1.37,2.1-2.7,2.12c-4.1,0.08-8.2,0.14-12.29,0.01c-1.89-0.06-2.81-1.19-2.86-3.12c-0.08-3.14-0.09-6.29,0-9.43
				c0.06-2.08,1.15-3.15,3.36-3.2c3.76-0.09,7.53-0.09,11.29-0.01c2.29,0.05,3.28,1.18,3.42,3.52
				C624.91,541.27,624.87,542.05,624.87,543z"/>
			<path class="st6" d="M642.98,540.75c-4,0-7.9,0-11.92,0c0,0.7,0,1.22,0,1.91c2.26,0,4.48,0,6.83,0c0,1.31,0,2.45,0,3.84
				c-2.27,0-4.54,0-6.87,0c0,0.9,0,1.55,0,2.4c4.08,0,8.09,0,12.21,0c0,1.35,0,2.51,0,3.81c-5.62,0-11.26,0-17.04,0
				c0-5.14,0-10.32,0-15.64c5.55,0,11.13,0,16.8,0C642.98,538.28,642.98,539.43,642.98,540.75z"/>
			<path class="st6" d="M503.31,556.08c-1.66,0-3.21,0-4.96,0c0.48-2.97,1.03-5.82,1.35-8.7c0.12-1.1-0.03-2.34-0.45-3.36
				c-1.22-2.95-2.65-5.81-3.99-8.71c-0.2-0.44-0.35-0.91-0.64-1.68c1.88,0,3.53-0.06,5.17,0.05c0.31,0.02,0.68,0.65,0.86,1.07
				c0.76,1.79,1.46,3.61,2.3,5.74c1.03-1.61,2.08-2.92,2.77-4.4c0.97-2.09,2.44-2.85,4.65-2.51c0.75,0.12,1.54,0.02,2.62,0.02
				c-0.34,0.69-0.51,1.13-0.76,1.52c-1.68,2.66-3.15,5.48-5.11,7.91c-2.53,3.15-2.84,6.85-3.41,10.54
				C503.6,554.4,503.46,555.22,503.31,556.08z"/>
			<path d="M409.19,544.87c-0.75,0-1.33,0-2.15,0c0.49-1.04,0.91-1.94,1.33-2.83c0.11,0.02,0.21,0.05,0.32,0.07
				C408.85,542.98,409.01,543.86,409.19,544.87z"/>
			<path d="M538.77,549.16c0-3,0-5.56,0-8.53c2.64,0.18,5.25,0.19,7.8,0.61c1.66,0.28,2.36,1.72,2.34,3.43
				c-0.02,1.71-0.49,3.3-2.3,3.64C544.07,548.78,541.46,548.89,538.77,549.16z"/>
			<path d="M465.7,551.37c0.24-1.45,0.43-2.6,0.65-3.91c1.36,0,2.69-0.07,4.01,0.02c1.08,0.08,2.16,0.66,1.93,1.82
				c-0.16,0.78-1.07,1.82-1.81,1.97C469,551.59,467.41,551.37,465.7,551.37z"/>
			<path d="M467.15,542.42c0.19-1.19,0.37-2.26,0.58-3.56c0.91,0,1.79,0.02,2.66-0.01c1.08-0.03,2.14,0.37,2.01,1.45
				c-0.1,0.77-1,1.76-1.77,2.03C469.65,542.69,468.45,542.42,467.15,542.42z"/>
			<path d="M492.62,543.33c-0.28,3.41-1.04,6.11-3.74,7.8c-2.01,1.26-3.93,0.69-5.06-1.42c-1.79-3.34-0.17-9.01,3.09-10.88
				c1.74-1,3.77-0.47,4.71,1.41C492.17,541.32,492.38,542.56,492.62,543.33z"/>
		</g>
		<g>
			<circle class="st7" cx="820.03" cy="205.09" r="12.05"/>
			<circle class="st8" cx="819.92" cy="204.98" r="8.09"/>
			<g>
				<path class="st9" d="M842.68,207.45v4.33h-2.9v-11.66h4.81c1.07,0,1.89,0.11,2.46,0.33s1.08,0.61,1.52,1.18
					c0.45,0.56,0.67,1.26,0.67,2.08c0,0.58-0.12,1.14-0.36,1.68s-0.58,0.98-1.01,1.29c-0.44,0.31-0.86,0.52-1.26,0.62
					s-1.05,0.15-1.92,0.15L842.68,207.45L842.68,207.45z M842.58,205.33h1.86c0.71,0,1.21-0.16,1.49-0.47
					c0.29-0.31,0.43-0.67,0.43-1.08c0-0.47-0.16-0.85-0.48-1.13s-0.8-0.42-1.45-0.42h-1.85V205.33z"/>
				<path class="st9" d="M855.4,211.96c-1.64,0-2.91-0.59-3.81-1.77c-0.9-1.18-1.35-2.61-1.35-4.28c0-1.7,0.46-3.12,1.37-4.26
					s2.21-1.71,3.89-1.71c1.7,0,2.99,0.61,3.85,1.82c0.87,1.22,1.3,2.61,1.3,4.17c0,1.69-0.45,3.12-1.34,4.28
					C858.42,211.38,857.11,211.96,855.4,211.96z M855.48,202.17c-1.5,0-2.25,1.26-2.25,3.78s0.75,3.79,2.25,3.79
					c1.45,0,2.18-1.26,2.18-3.78C857.66,203.43,856.93,202.17,855.48,202.17z"/>
				<path class="st9" d="M876.9,200.12l-3.06,11.66h-2.81l-2.01-7.72l-1.94,7.72h-2.79l-3.14-11.66h2.92l1.68,7.12
					c0.01,0.03,0.04,0.16,0.1,0.38c0.02,0.08,0.06,0.2,0.1,0.36l2-7.85h2.64l2.05,7.85c0.04-0.15,0.1-0.39,0.18-0.73l1.73-7.12h2.35
					V200.12z"/>
				<path class="st9" d="M886.95,202.34h-5.81v2.39h4.57v2.2h-4.57v2.55h5.81v2.31h-8.71v-11.66h8.71V202.34z"/>
				<path class="st9" d="M891.54,207.16v4.62h-2.88v-11.66h5.36c0.99,0,1.78,0.11,2.38,0.33s1.09,0.62,1.49,1.21
					s0.59,1.24,0.59,1.96c0,1.4-0.71,2.41-2.12,3.01l2.25,5.16h-3.16l-1.87-4.62h-2.04V207.16z M891.54,202.19v2.97h1.75
					c0.57,0,0.99-0.04,1.25-0.12s0.49-0.25,0.69-0.51c0.2-0.27,0.3-0.57,0.3-0.91c0-0.32-0.1-0.62-0.3-0.87
					c-0.2-0.26-0.42-0.41-0.66-0.47s-0.69-0.09-1.34-0.09L891.54,202.19L891.54,202.19z"/>
			</g>
		</g>
		<g>
			<path class="st5" d="M248.94,117.85c-47.83,24.89-98.4,41.34-151.77,49.05c-11.23,1.62-17.93,8.57-22.84,17.99
				c-0.84,1.6-1.58,3.25-2.37,4.88c-4.64,0.02-6.51-2.2-6.18-6.88c0.7-9.9,5.12-18.33,11.24-25.57
				c9.33-11.04,20.45-19.79,34.85-23.82c6.99-1.95,14.11-1.72,21.14-2.59c15.25-1.9,30.51-3.62,45.62-6.53
				c13.3-2.56,26.74-4.25,40.2-5.85c7.93-0.94,15.93,0.31,23.78-1.57C244.54,116.49,246.83,117.51,248.94,117.85z"/>
			<path class="st5" d="M951.64,189.77c-2-3.61-3.86-7.31-6.03-10.82c-6.11-9.85-16.22-11.46-26.56-13.29
				c-34.7-6.13-69-13.96-101.54-27.9c-14.48-6.2-28.59-13.24-42.87-19.89c8.22-1.53,16.5-0.3,24.65,0.22
				c11.99,0.77,23.96,2.36,35.83,4.58c10.7,2,21.35,4.38,32.22,5.48c10.01,1.02,19.96,3.04,29.99,3.45
				c13.87,0.56,25.86,5.38,36.46,13.87c11.78,9.42,20.75,20.68,23.26,36.28C957.87,186.89,956.06,188.85,951.64,189.77z"/>
		</g>
	</g>
	<g>
		<circle class="st10" cx="817.88" cy="353.19" r="33.09"/>
		<circle class="st11" cx="817.85" cy="353.19" r="28.99"/>
		<g>
			<path class="st12" d="M806.22,365.56v-28.82h14.63c3.04,0,5.26,0.77,6.65,2.3s2.09,3.29,2.09,5.26c0,1.44-0.41,2.73-1.21,3.9
				c-0.81,1.16-2.02,1.96-3.62,2.4c3.73,0.9,5.6,3.14,5.6,6.71c0,2.14-0.66,4.05-1.97,5.73c-1.32,1.68-4.13,2.52-8.44,2.52
				L806.22,365.56L806.22,365.56z M814.37,347.79h4.1c1.03,0,1.75-0.26,2.17-0.78s0.63-1.08,0.63-1.67c0-1.6-0.99-2.41-2.96-2.41
				h-3.95v4.86H814.37z M814.37,359.15h4.31c1.07,0,1.85-0.26,2.35-0.79s0.75-1.12,0.75-1.78s-0.24-1.27-0.73-1.83
				s-1.38-0.83-2.67-0.83h-4.01V359.15z"/>
		</g>
		<circle class="st10" cx="905.52" cy="324.2" r="33.09"/>
		<circle class="st11" cx="905.52" cy="324.2" r="28.99"/>
		<g>
			<path class="st12" d="M910.99,338.4l-1.63-5.68h-7.72l-1.73,5.68h-7.18l8.9-28.82h9.35l9.04,28.82H910.99z M903.14,326.43h4.66
				l-2.33-8.36L903.14,326.43z"/>
		</g>
	</g>
	<g>
		<path class="st13" d="M217.81,483.12l-73.39-19.66c-10.35-2.77-16.5-13.41-13.72-23.77l0,0c2.77-10.35,13.41-16.5,23.77-13.72
			l73.39,19.66c10.35,2.77,16.5,13.41,13.72,23.77l0,0C238.8,479.75,228.16,485.89,217.81,483.12z"/>
		<path class="st1" d="M219.58,479.56l-74.91-20.07c-8.27-2.22-13.18-10.72-10.96-18.99l0,0c2.22-8.27,10.72-13.18,18.99-10.96
			l74.91,20.07c8.27,2.22,13.18,10.72,10.96,18.99l0,0C236.35,476.86,227.85,481.77,219.58,479.56z"/>
		<path class="st14" d="M151.76,440.17l-2.61,0.12c-0.08-1-0.64-1.64-1.69-1.92c-1.12-0.3-1.77-0.1-1.96,0.59
			c-0.07,0.28-0.03,0.54,0.13,0.78c0.16,0.25,0.59,0.54,1.28,0.88c1.17,0.57,2.01,1.05,2.51,1.44c0.51,0.39,0.88,0.91,1.13,1.55
			s0.28,1.29,0.11,1.96c-0.28,1.04-0.94,1.83-1.98,2.36s-2.39,0.58-4.04,0.14c-1.24-0.33-2.22-0.88-2.95-1.65s-1.09-1.72-1.08-2.85
			l2.77,0.14c0.01,1.15,0.68,1.91,2.02,2.27c0.65,0.17,1.16,0.18,1.54,0.03c0.38-0.15,0.62-0.4,0.71-0.73
			c0.09-0.34,0.02-0.64-0.22-0.9c-0.24-0.26-0.75-0.59-1.53-0.97c-1.46-0.72-2.44-1.42-2.95-2.12c-0.51-0.7-0.63-1.56-0.36-2.57
			c0.27-1.02,0.9-1.78,1.86-2.27c0.97-0.49,2.12-0.56,3.46-0.2C150.29,436.87,151.57,438.18,151.76,440.17z"/>
		<path class="st14" d="M162.36,440.3l-0.61,2.28l-2.99-0.8l-2.47,9.23l-2.87-0.77l2.47-9.23l-3.01-0.81l0.61-2.28L162.36,440.3z"/>
		<path class="st14" d="M168.66,441.99l0.7,12.52l-3.04-0.81l-0.11-2.57l-3.91-1.05l-1.39,2.17l-2.48-0.66l6.95-10.47L168.66,441.99
			z M163.55,448.13l2.56,0.69l-0.19-4.38L163.55,448.13z"/>
		<path class="st14" d="M174.73,451.05l-1.22,4.56l-2.85-0.76l3.08-11.5l5.31,1.42c0.98,0.26,1.74,0.58,2.27,0.96
			c0.53,0.37,0.92,0.9,1.15,1.59c0.23,0.68,0.26,1.38,0.07,2.09c-0.37,1.38-1.33,2.18-2.89,2.41l0.87,5.68l-3.13-0.84l-0.63-5.06
			L174.73,451.05z M176.04,446.16l-0.79,2.93l1.73,0.46c0.57,0.15,0.99,0.22,1.26,0.22c0.28-0.01,0.55-0.11,0.82-0.32
			c0.27-0.21,0.45-0.48,0.54-0.82c0.09-0.32,0.06-0.63-0.07-0.94s-0.31-0.52-0.53-0.64c-0.22-0.12-0.65-0.27-1.3-0.44L176.04,446.16
			z"/>
		<path class="st14" d="M193.31,448.59l-0.61,2.28l-2.99-0.8l-2.47,9.23l-2.87-0.77l2.47-9.23l-3.01-0.81l0.61-2.28L193.31,448.59z"
			/>
		
			<ellipse transform="matrix(0.2588 -0.9659 0.9659 0.2588 -283.2313 559.8314)" class="st11" cx="223.17" cy="464.47" rx="13.19" ry="13.85"/>
	</g>
	<g>
		<path class="st13" d="M213.46,537.8l-73.72-18.38c-10.4-2.59-16.73-13.12-14.13-23.52l0,0c2.59-10.4,13.12-16.73,23.52-14.13
			l73.72,18.38c10.4,2.59,16.73,13.12,14.13,23.52l0,0C234.39,534.07,223.86,540.4,213.46,537.8z"/>
		<path class="st1" d="M215.17,534.21l-75.25-18.76c-8.31-2.07-13.36-10.49-11.29-18.79l0,0c2.07-8.31,10.49-13.36,18.79-11.29
			l75.25,18.76c8.31,2.07,13.36,10.49,11.29,18.79l0,0C231.9,531.23,223.48,536.28,215.17,534.21z"/>
		<path class="st14" d="M147.2,496.51l-2.77,0.18c-0.1-1.06-0.71-1.73-1.83-2c-1.19-0.3-1.88-0.08-2.07,0.66
			c-0.07,0.29-0.02,0.57,0.15,0.83c0.17,0.26,0.63,0.56,1.38,0.91c1.25,0.58,2.15,1.08,2.7,1.49s0.96,0.95,1.23,1.63
			c0.28,0.68,0.32,1.37,0.15,2.08c-0.28,1.11-0.96,1.96-2.06,2.54c-1.1,0.59-2.53,0.66-4.29,0.22c-1.32-0.33-2.37-0.9-3.16-1.7
			c-0.79-0.8-1.19-1.81-1.2-3.01l2.95,0.09c0.03,1.22,0.76,2.01,2.19,2.37c0.69,0.17,1.24,0.17,1.64,0s0.65-0.43,0.74-0.79
			c0.09-0.36,0.01-0.68-0.25-0.95c-0.26-0.27-0.81-0.61-1.64-1c-1.56-0.73-2.62-1.47-3.18-2.2s-0.7-1.64-0.43-2.72
			c0.27-1.09,0.92-1.91,1.94-2.45s2.24-0.63,3.67-0.28C145.57,493.03,146.96,494.4,147.2,496.51z"/>
		<path class="st14" d="M158.83,499.03l-6.14-1.53l-0.63,2.52l4.83,1.2l-0.58,2.31l-4.83-1.2l-0.67,2.68l6.14,1.53l-0.61,2.43
			l-9.21-2.3l3.06-12.28l9.21,2.3L158.83,499.03z"/>
		<path class="st14" d="M161.83,507.75l5.13,1.28l-0.61,2.43l-8.19-2.04l3.06-12.28l3.06,0.76L161.83,507.75z"/>
		<path class="st14" d="M179.6,504.2l-6.14-1.53l-0.63,2.52l4.83,1.2l-0.58,2.31l-4.83-1.2l-0.67,2.68l6.14,1.53l-0.61,2.43
			l-9.21-2.3l3.06-12.28l9.21,2.3L179.6,504.2z"/>
		<path class="st14" d="M191.26,509.48l-3.21-0.6c0.39-1.74-0.11-2.79-1.48-3.13c-1.58-0.39-2.7,0.75-3.36,3.41
			c-0.38,1.54-0.43,2.64-0.14,3.3c0.29,0.66,0.82,1.08,1.59,1.27c1.25,0.31,2.21-0.27,2.87-1.75l2.89,0.9
			c-0.56,1.42-1.41,2.4-2.56,2.92s-2.42,0.61-3.81,0.27c-1.71-0.43-2.95-1.33-3.74-2.72c-0.79-1.39-0.94-3.07-0.44-5.05
			c0.46-1.85,1.36-3.24,2.68-4.17c1.33-0.92,2.89-1.16,4.67-0.72C190.31,504.19,191.66,506.21,191.26,509.48z"/>
		<path class="st14" d="M202.31,507.38l-0.61,2.43l-3.19-0.8l-2.46,9.85l-3.06-0.76l2.46-9.85l-3.21-0.8l0.61-2.43L202.31,507.38z"
			/>
		
			<ellipse transform="matrix(0.2419 -0.9703 0.9703 0.2419 -337.9778 605.5267)" class="st11" cx="218.52" cy="519.05" rx="13.19" ry="13.85"/>
	</g>
	<g>
		<path class="st3" d="M105.86,352.72h102.39c5.41,0,9.8-4.39,9.8-9.8v-25.59c0-5.41-4.39-9.8-9.8-9.8H105.86
			c-5.41,0-9.8,4.39-9.8,9.8v25.59C96.05,348.33,100.44,352.72,105.86,352.72z"/>
		<path class="st3" d="M179.65,381.32v-102.4c0-5.41-4.39-9.8-9.8-9.8h-25.59c-5.41,0-9.8,4.39-9.8,9.8v102.39
			c0,5.41,4.39,9.8,9.8,9.8h25.59C175.26,391.12,179.65,386.73,179.65,381.32z"/>
	</g>
	<g>
		<path class="st15" d="M109.49,350.35h95.12c5.41,0,9.8-4.39,9.8-9.8V319.7c0-5.41-4.39-9.8-9.8-9.8h-95.12
			c-5.41,0-9.8,4.39-9.8,9.8v20.85C99.69,345.96,104.08,350.35,109.49,350.35z"/>
		<path class="st15" d="M177.28,377.01v-93.78c0-5.41-4.39-9.8-9.8-9.8h-20.85c-5.41,0-9.8,4.39-9.8,9.8v93.78
			c0,5.41,4.39,9.8,9.8,9.8h20.85C172.89,386.81,177.28,382.42,177.28,377.01z"/>
	</g>
	<g>
		<path class="st11" d="M112.04,348.5h90.04c5.41,0,9.8-4.39,9.8-9.8v-17.16c0-5.41-4.39-9.8-9.8-9.8h-90.04
			c-5.41,0-9.8,4.39-9.8,9.8v17.16C102.23,344.11,106.62,348.5,112.04,348.5z"/>
		<path class="st11" d="M175.5,375.14V285.1c0-5.41-4.39-9.8-9.8-9.8h-17.29c-5.41,0-9.8,4.39-9.8,9.8v90.04
			c0,5.41,4.39,9.8,9.8,9.8h17.29C171.11,384.94,175.5,380.55,175.5,375.14z"/>
		<circle class="st16" cx="157.05" cy="330.12" r="13.6"/>
	</g>
	<g>
		<path class="st16" d="M155.59,280.25l-8.55,14.81c-0.65,1.12,0.16,2.53,1.46,2.53h17.1c1.3,0,2.11-1.4,1.46-2.53l-8.55-14.81
			C157.87,279.13,156.24,279.13,155.59,280.25z"/>
		<path class="st16" d="M206.93,328.66l-14.81-8.55c-1.12-0.65-2.53,0.16-2.53,1.46v17.1c0,1.3,1.4,2.11,2.53,1.46l14.81-8.55
			C208.05,330.93,208.05,329.31,206.93,328.66z"/>
		<path class="st16" d="M107.18,331.58l14.81,8.55c1.12,0.65,2.53-0.16,2.53-1.46v-17.1c0-1.3-1.4-2.11-2.53-1.46l-14.81,8.55
			C106.06,329.31,106.06,330.93,107.18,331.58z"/>
		<path class="st16" d="M158.51,379.99l8.55-14.81c0.65-1.12-0.16-2.53-1.46-2.53h-17.1c-1.3,0-2.11,1.4-1.46,2.53l8.55,14.81
			C156.24,381.12,157.87,381.12,158.51,379.99z"/>
	</g>
</g>
</svg>
