<?xml version="1.0" encoding="utf-8"?>
<!-- Generator: Adobe Illustrator 24.0.2, SVG Export Plug-In . SVG Version: 6.00 Build 0)  -->
<svg version="1.0" id="Layer_1" xmlns="http://www.w3.org/2000/svg" xmlns:xlink="http://www.w3.org/1999/xlink" x="0px" y="0px"
	 viewBox="0 0 60 59" style="enable-background:new 0 0 60 59;" xml:space="preserve">
<style type="text/css">
	.st0{fill:#A6A3B8;}
</style>
<path class="st0" d="M17.35,8.85L8.8,23.66c-0.65,1.12,0.16,2.53,1.46,2.53h17.1c1.3,0,2.11-1.4,1.46-2.53L20.27,8.85
	C19.62,7.73,18,7.73,17.35,8.85z"/>
<path class="st0" d="M50.68,15.26L35.87,6.71c-1.12-0.65-2.53,0.16-2.53,1.46v17.1c0,1.3,1.4,2.11,2.53,1.46l14.81-8.55
	C51.8,17.53,51.8,15.91,50.68,15.26z"/>
<path class="st0" d="M31.93,39.18l14.81,8.55c1.12,0.65,2.53-0.16,2.53-1.46v-17.1c0-1.3-1.4-2.11-2.53-1.46l-14.81,8.55
	C30.81,36.91,30.81,38.53,31.93,39.18z"/>
<path class="st0" d="M20.27,49.59l8.55-14.81c0.65-1.12-0.16-2.53-1.46-2.53h-17.1c-1.3,0-2.11,1.4-1.46,2.53l8.55,14.81
	C18,50.72,19.62,50.72,20.27,49.59z"/>
</svg>
