<?xml version="1.0" encoding="utf-8"?>
<!-- Generator: Adobe Illustrator 24.0.2, SVG Export Plug-In . SVG Version: 6.00 Build 0)  -->
<svg version="1.0" id="Layer_1" xmlns="http://www.w3.org/2000/svg" xmlns:xlink="http://www.w3.org/1999/xlink" x="0px" y="0px"
	 viewBox="0 0 176 73" style="enable-background:new 0 0 176 73;" xml:space="preserve">
<style type="text/css">
	.st0{fill:#606060;}
</style>
<path class="st0" d="M183.51,0.78c-47.83,24.89-98.4,41.34-151.77,49.05C20.51,51.45,13.81,58.4,8.9,67.81
	c-0.84,1.6-1.58,3.25-2.37,4.88c-4.64,0.02-6.51-2.2-6.18-6.88c0.7-9.9,5.12-18.33,11.24-25.57c9.33-11.04,20.45-19.79,34.85-23.82
	c6.99-1.95,14.11-1.72,21.14-2.59c15.25-1.9,30.51-3.62,45.62-6.53c13.3-2.56,26.74-4.25,40.2-5.85c7.93-0.94,15.93,0.31,23.78-1.57
	C179.11-0.58,181.39,0.44,183.51,0.78z"/>
</svg>
